<svg width="347" height="98" viewBox="0 0 347 98" fill="none" xmlns="http://www.w3.org/2000/svg">
<rect x="1.5" y="1.5" width="344" height="95" stroke="#202020" stroke-width="3"/>
<rect width="165" height="78" transform="translate(9 10)" fill="#202020"/>
<path d="M49.272 44.032C49.272 44.704 49.608 45.232 50.28 45.616C50.984 46 52.072 46.416 53.544 46.864C55.304 47.44 56.744 48 57.864 48.544C59.016 49.088 60.008 49.936 60.84 51.088C61.704 52.24 62.136 53.744 62.136 55.6C62.136 61.552 58.264 64.528 50.52 64.528C49.24 64.528 47.672 64.416 45.816 64.192C43.992 63.968 42.328 63.68 40.824 63.328C40.888 62.656 41.016 61.68 41.208 60.4C41.432 59.088 41.64 58.112 41.832 57.472C42.952 57.632 44.632 57.824 46.872 58.048C49.144 58.272 50.856 58.384 52.008 58.384C52.68 58.384 53.08 58.336 53.208 58.24C53.4 58.112 53.544 57.904 53.64 57.616C53.768 57.296 53.832 57.024 53.832 56.8C53.832 56.16 53.528 55.68 52.92 55.36C52.312 55.008 51.272 54.592 49.8 54.112C48.04 53.568 46.584 53.008 45.432 52.432C44.28 51.856 43.272 50.96 42.408 49.744C41.544 48.528 41.112 46.928 41.112 44.944C41.112 43.536 41.432 42.16 42.072 40.816C42.712 39.44 43.368 38.512 44.04 38.032C44.552 37.68 45.608 37.344 47.208 37.024C48.808 36.704 50.312 36.544 51.72 36.544C55.304 36.544 58.232 36.88 60.504 37.552C60.472 38.192 60.36 39.072 60.168 40.192C60.008 41.312 59.832 42.336 59.64 43.264L58.536 43.216C54.376 42.928 51.72 42.784 50.568 42.784C50.088 42.784 49.816 42.8 49.752 42.832C49.624 42.896 49.512 43.04 49.416 43.264C49.32 43.488 49.272 43.744 49.272 44.032ZM81.9431 58H73.9751L72.5351 64H63.7031L72.5351 36.64H83.8151L92.2631 64H83.3831L81.9431 58ZM77.9111 42.544L75.0791 52.672H80.7911L78.1031 42.544H77.9111ZM109.318 36.64H118.438L111.046 64H98.5181L91.0781 36.64H100.246L104.662 58.048H104.902L109.318 36.64ZM120.613 36.64H140.533V42.4H129.253V47.392H138.757V52.576H129.253V58.144H140.485V64H120.613V36.64Z" fill="white"/>
<path d="M209.83 62H203.446L202.952 50.068C202.876 47.712 202.787 45.926 202.686 44.71H202.572C202.268 45.6727 201.913 47.1673 201.508 49.194L201.318 50.144L198.696 62H192.312L190.108 51.322L189.728 49.422C189.196 47.066 188.829 45.4953 188.626 44.71H188.512C188.411 45.9767 188.322 48.0413 188.246 50.904C188.221 51.0813 188.208 51.36 188.208 51.74L187.866 62H181.444L182.356 40.34H193.224L195.086 49.688L195.542 52.196C195.745 51.4107 195.935 50.5367 196.112 49.574L197.86 40.34H208.956L209.83 62ZM224.3 55.084V62H217.46V55.16L210.164 40.34H217.118L220.006 47.37C220.31 48.0793 220.588 48.8267 220.842 49.612H220.918C221.196 48.7507 221.475 47.978 221.754 47.294L224.604 40.34H231.52L224.3 55.084ZM238.678 53.26V62H232.332V40.34H238.754L244.492 49.08C245.353 50.372 246.012 51.4613 246.468 52.348H246.582V48.7V40.34H252.89V62H246.43L240.54 52.88L238.83 50.296H238.716L238.678 53.26ZM267.202 62.494C263.428 62.494 260.59 61.6073 258.69 59.834C256.816 58.0353 255.878 55.16 255.878 51.208C255.878 47.332 256.917 44.5073 258.994 42.734C261.072 40.9607 263.82 40.074 267.24 40.074C274.435 40.074 278.032 43.6587 278.032 50.828C278.032 54.4507 277.146 57.3007 275.372 59.378C273.624 61.4553 270.901 62.494 267.202 62.494ZM267.05 58.01C267.76 58.01 268.355 57.896 268.836 57.668C269.318 57.4147 269.698 56.984 269.976 56.376C270.508 55.3373 270.774 53.64 270.774 51.284C270.774 48.9787 270.508 47.3067 269.976 46.268C269.444 45.204 268.469 44.6467 267.05 44.596C266.518 44.596 265.961 44.6593 265.378 44.786C264.821 44.8873 264.466 45.0393 264.314 45.242C264.01 45.5967 263.77 46.3567 263.592 47.522C263.44 48.662 263.364 49.916 263.364 51.284C263.364 53.412 263.567 54.97 263.972 55.958C264.251 56.6927 264.644 57.2247 265.15 57.554C265.657 57.858 266.29 58.01 267.05 58.01ZM292.418 62H285.578V45.09H279.46V40.34H298.536V45.09H292.418V62ZM300.534 40.34H316.304V44.9H307.374V48.852H314.898V52.956H307.374V57.364H316.266V62H300.534V40.34ZM325.437 46.192C325.437 46.724 325.703 47.142 326.235 47.446C326.792 47.75 327.653 48.0793 328.819 48.434C330.212 48.89 331.352 49.3333 332.239 49.764C333.151 50.1947 333.936 50.866 334.595 51.778C335.279 52.69 335.621 53.8807 335.621 55.35C335.621 60.062 332.555 62.418 326.425 62.418C325.411 62.418 324.17 62.3293 322.701 62.152C321.257 61.9747 319.939 61.7467 318.749 61.468C318.799 60.936 318.901 60.1633 319.053 59.15C319.23 58.1113 319.395 57.3387 319.547 56.832C320.433 56.9587 321.763 57.1107 323.537 57.288C325.335 57.4653 326.691 57.554 327.603 57.554C328.135 57.554 328.451 57.516 328.553 57.44C328.705 57.3387 328.819 57.174 328.895 56.946C328.996 56.6927 329.047 56.4773 329.047 56.3C329.047 55.7933 328.806 55.4133 328.325 55.16C327.843 54.8813 327.02 54.552 325.855 54.172C324.461 53.7413 323.309 53.298 322.397 52.842C321.485 52.386 320.687 51.6767 320.003 50.714C319.319 49.7513 318.977 48.4847 318.977 46.914C318.977 45.7993 319.23 44.71 319.737 43.646C320.243 42.5567 320.763 41.822 321.295 41.442C321.7 41.1633 322.536 40.8973 323.803 40.644C325.069 40.3907 326.26 40.264 327.375 40.264C330.212 40.264 332.53 40.53 334.329 41.062C334.303 41.5687 334.215 42.2653 334.063 43.152C333.936 44.0387 333.797 44.8493 333.645 45.584L332.771 45.546C329.477 45.318 327.375 45.204 326.463 45.204C326.083 45.204 325.867 45.2167 325.817 45.242C325.715 45.2927 325.627 45.4067 325.551 45.584C325.475 45.7613 325.437 45.964 325.437 46.192Z" fill="black"/>
</svg>
