<svg width="500" height="500" viewBox="0 0 500 500" fill="none" xmlns="http://www.w3.org/2000/svg">
<rect width="500" height="500" rx="250" fill="white"/>
<rect x="77.5" y="202.5" width="344" height="95" stroke="#202020" stroke-width="3"/>
<rect width="165" height="78" transform="translate(85 211)" fill="#202020"/>
<path d="M125.272 245.032C125.272 245.704 125.608 246.232 126.28 246.616C126.984 247 128.072 247.416 129.544 247.864C131.304 248.44 132.744 249 133.864 249.544C135.016 250.088 136.008 250.936 136.84 252.088C137.704 253.24 138.136 254.744 138.136 256.6C138.136 262.552 134.264 265.528 126.52 265.528C125.24 265.528 123.672 265.416 121.816 265.192C119.992 264.968 118.328 264.68 116.824 264.328C116.888 263.656 117.016 262.68 117.208 261.4C117.432 260.088 117.64 259.112 117.832 258.472C118.952 258.632 120.632 258.824 122.872 259.048C125.144 259.272 126.856 259.384 128.008 259.384C128.68 259.384 129.08 259.336 129.208 259.24C129.4 259.112 129.544 258.904 129.64 258.616C129.768 258.296 129.832 258.024 129.832 257.8C129.832 257.16 129.528 256.68 128.92 256.36C128.312 256.008 127.272 255.592 125.8 255.112C124.04 254.568 122.584 254.008 121.432 253.432C120.28 252.856 119.272 251.96 118.408 250.744C117.544 249.528 117.112 247.928 117.112 245.944C117.112 244.536 117.432 243.16 118.072 241.816C118.712 240.44 119.368 239.512 120.04 239.032C120.552 238.68 121.608 238.344 123.208 238.024C124.808 237.704 126.312 237.544 127.72 237.544C131.304 237.544 134.232 237.88 136.504 238.552C136.472 239.192 136.36 240.072 136.168 241.192C136.008 242.312 135.832 243.336 135.64 244.264L134.536 244.216C130.376 243.928 127.72 243.784 126.568 243.784C126.088 243.784 125.816 243.8 125.752 243.832C125.624 243.896 125.512 244.04 125.416 244.264C125.32 244.488 125.272 244.744 125.272 245.032ZM157.943 259H149.975L148.535 265H139.703L148.535 237.64H159.815L168.263 265H159.383L157.943 259ZM153.911 243.544L151.079 253.672H156.791L154.103 243.544H153.911ZM185.318 237.64H194.438L187.046 265H174.518L167.078 237.64H176.246L180.662 259.048H180.902L185.318 237.64ZM196.613 237.64H216.533V243.4H205.253V248.392H214.757V253.576H205.253V259.144H216.485V265H196.613V237.64Z" fill="white"/>
<path d="M285.83 263H279.446L278.952 251.068C278.876 248.712 278.787 246.926 278.686 245.71H278.572C278.268 246.673 277.913 248.167 277.508 250.194L277.318 251.144L274.696 263H268.312L266.108 252.322L265.728 250.422C265.196 248.066 264.829 246.495 264.626 245.71H264.512C264.411 246.977 264.322 249.041 264.246 251.904C264.221 252.081 264.208 252.36 264.208 252.74L263.866 263H257.444L258.356 241.34H269.224L271.086 250.688L271.542 253.196C271.745 252.411 271.935 251.537 272.112 250.574L273.86 241.34H284.956L285.83 263ZM300.3 256.084V263H293.46V256.16L286.164 241.34H293.118L296.006 248.37C296.31 249.079 296.588 249.827 296.842 250.612H296.918C297.196 249.751 297.475 248.978 297.754 248.294L300.604 241.34H307.52L300.3 256.084ZM314.678 254.26V263H308.332V241.34H314.754L320.492 250.08C321.353 251.372 322.012 252.461 322.468 253.348H322.582V249.7V241.34H328.89V263H322.43L316.54 253.88L314.83 251.296H314.716L314.678 254.26ZM343.202 263.494C339.428 263.494 336.59 262.607 334.69 260.834C332.816 259.035 331.878 256.16 331.878 252.208C331.878 248.332 332.917 245.507 334.994 243.734C337.072 241.961 339.82 241.074 343.24 241.074C350.435 241.074 354.032 244.659 354.032 251.828C354.032 255.451 353.146 258.301 351.372 260.378C349.624 262.455 346.901 263.494 343.202 263.494ZM343.05 259.01C343.76 259.01 344.355 258.896 344.836 258.668C345.318 258.415 345.698 257.984 345.976 257.376C346.508 256.337 346.774 254.64 346.774 252.284C346.774 249.979 346.508 248.307 345.976 247.268C345.444 246.204 344.469 245.647 343.05 245.596C342.518 245.596 341.961 245.659 341.378 245.786C340.821 245.887 340.466 246.039 340.314 246.242C340.01 246.597 339.77 247.357 339.592 248.522C339.44 249.662 339.364 250.916 339.364 252.284C339.364 254.412 339.567 255.97 339.972 256.958C340.251 257.693 340.644 258.225 341.15 258.554C341.657 258.858 342.29 259.01 343.05 259.01ZM368.418 263H361.578V246.09H355.46V241.34H374.536V246.09H368.418V263ZM376.534 241.34H392.304V245.9H383.374V249.852H390.898V253.956H383.374V258.364H392.266V263H376.534V241.34ZM401.437 247.192C401.437 247.724 401.703 248.142 402.235 248.446C402.792 248.75 403.653 249.079 404.819 249.434C406.212 249.89 407.352 250.333 408.239 250.764C409.151 251.195 409.936 251.866 410.595 252.778C411.279 253.69 411.621 254.881 411.621 256.35C411.621 261.062 408.555 263.418 402.425 263.418C401.411 263.418 400.17 263.329 398.701 263.152C397.257 262.975 395.939 262.747 394.749 262.468C394.799 261.936 394.901 261.163 395.053 260.15C395.23 259.111 395.395 258.339 395.547 257.832C396.433 257.959 397.763 258.111 399.537 258.288C401.335 258.465 402.691 258.554 403.603 258.554C404.135 258.554 404.451 258.516 404.553 258.44C404.705 258.339 404.819 258.174 404.895 257.946C404.996 257.693 405.047 257.477 405.047 257.3C405.047 256.793 404.806 256.413 404.325 256.16C403.843 255.881 403.02 255.552 401.855 255.172C400.461 254.741 399.309 254.298 398.397 253.842C397.485 253.386 396.687 252.677 396.003 251.714C395.319 250.751 394.977 249.485 394.977 247.914C394.977 246.799 395.23 245.71 395.737 244.646C396.243 243.557 396.763 242.822 397.295 242.442C397.7 242.163 398.536 241.897 399.803 241.644C401.069 241.391 402.26 241.264 403.375 241.264C406.212 241.264 408.53 241.53 410.329 242.062C410.303 242.569 410.215 243.265 410.063 244.152C409.936 245.039 409.797 245.849 409.645 246.584L408.771 246.546C405.477 246.318 403.375 246.204 402.463 246.204C402.083 246.204 401.867 246.217 401.817 246.242C401.715 246.293 401.627 246.407 401.551 246.584C401.475 246.761 401.437 246.964 401.437 247.192Z" fill="black"/>
</svg>
