<svg width="142" height="10" viewBox="0 0 142 10" fill="none" xmlns="http://www.w3.org/2000/svg">
<path d="M3.34 9.096C2.844 9.096 2.38 8.992 1.948 8.784C1.516 8.576 1.164 8.276 0.892 7.884L1.588 7.068C1.82 7.388 2.08 7.636 2.368 7.812C2.664 7.98 2.988 8.064 3.34 8.064C4.3 8.064 4.78 7.496 4.78 6.36V1.644H1.744V0.599999H5.968V6.3C5.968 7.236 5.744 7.936 5.296 8.4C4.856 8.864 4.204 9.096 3.34 9.096ZM14.5923 9V7.656L14.5323 7.404V5.112C14.5323 4.624 14.3883 4.248 14.1003 3.984C13.8203 3.712 13.3963 3.576 12.8283 3.576C12.4523 3.576 12.0843 3.64 11.7243 3.768C11.3643 3.888 11.0603 4.052 10.8123 4.26L10.3323 3.396C10.6603 3.132 11.0523 2.932 11.5083 2.796C11.9723 2.652 12.4563 2.58 12.9603 2.58C13.8323 2.58 14.5043 2.792 14.9763 3.216C15.4483 3.64 15.6843 4.288 15.6843 5.16V9H14.5923ZM12.5043 9.072C12.0323 9.072 11.6163 8.992 11.2563 8.832C10.9043 8.672 10.6323 8.452 10.4403 8.172C10.2483 7.884 10.1523 7.56 10.1523 7.2C10.1523 6.856 10.2323 6.544 10.3923 6.264C10.5603 5.984 10.8283 5.76 11.1963 5.592C11.5723 5.424 12.0763 5.34 12.7083 5.34H14.7243V6.168H12.7563C12.1803 6.168 11.7923 6.264 11.5923 6.456C11.3923 6.648 11.2923 6.88 11.2923 7.152C11.2923 7.464 11.4163 7.716 11.6643 7.908C11.9123 8.092 12.2563 8.184 12.6963 8.184C13.1283 8.184 13.5043 8.088 13.8243 7.896C14.1523 7.704 14.3883 7.424 14.5323 7.056L14.7603 7.848C14.6083 8.224 14.3403 8.524 13.9563 8.748C13.5723 8.964 13.0883 9.072 12.5043 9.072ZM28.1722 2.58C28.6842 2.58 29.1362 2.68 29.5282 2.88C29.9202 3.08 30.2242 3.384 30.4402 3.792C30.6642 4.2 30.7762 4.716 30.7762 5.34V9H29.6242V5.472C29.6242 4.856 29.4802 4.392 29.1922 4.08C28.9042 3.768 28.5002 3.612 27.9802 3.612C27.5962 3.612 27.2602 3.692 26.9722 3.852C26.6842 4.012 26.4602 4.248 26.3002 4.56C26.1482 4.872 26.0722 5.26 26.0722 5.724V9H24.9202V5.472C24.9202 4.856 24.7762 4.392 24.4882 4.08C24.2082 3.768 23.8042 3.612 23.2762 3.612C22.9002 3.612 22.5682 3.692 22.2802 3.852C21.9922 4.012 21.7682 4.248 21.6082 4.56C21.4482 4.872 21.3682 5.26 21.3682 5.724V9H20.2162V2.64H21.3202V4.332L21.1402 3.9C21.3402 3.484 21.6482 3.16 22.0642 2.928C22.4802 2.696 22.9642 2.58 23.5162 2.58C24.1242 2.58 24.6482 2.732 25.0882 3.036C25.5282 3.332 25.8162 3.784 25.9522 4.392L25.4842 4.2C25.6762 3.712 26.0122 3.32 26.4922 3.024C26.9722 2.728 27.5322 2.58 28.1722 2.58ZM38.1279 9.072C37.4479 9.072 36.8479 8.932 36.3279 8.652C35.8159 8.372 35.4159 7.988 35.1279 7.5C34.8479 7.012 34.7079 6.452 34.7079 5.82C34.7079 5.188 34.8439 4.628 35.1159 4.14C35.3959 3.652 35.7759 3.272 36.2559 3C36.7439 2.72 37.2919 2.58 37.8999 2.58C38.5159 2.58 39.0599 2.716 39.5319 2.988C40.0039 3.26 40.3719 3.644 40.6359 4.14C40.9079 4.628 41.0439 5.2 41.0439 5.856C41.0439 5.904 41.0399 5.96 41.0319 6.024C41.0319 6.088 41.0279 6.148 41.0199 6.204H35.6079V5.376H40.4199L39.9519 5.664C39.9599 5.256 39.8759 4.892 39.6999 4.572C39.5239 4.252 39.2799 4.004 38.9679 3.828C38.6639 3.644 38.3079 3.552 37.8999 3.552C37.4999 3.552 37.1439 3.644 36.8319 3.828C36.5199 4.004 36.2759 4.256 36.0999 4.584C35.9239 4.904 35.8359 5.272 35.8359 5.688V5.88C35.8359 6.304 35.9319 6.684 36.1239 7.02C36.3239 7.348 36.5999 7.604 36.9519 7.788C37.3039 7.972 37.7079 8.064 38.1639 8.064C38.5399 8.064 38.8799 8 39.1839 7.872C39.4959 7.744 39.7679 7.552 39.9999 7.296L40.6359 8.04C40.3479 8.376 39.9879 8.632 39.5559 8.808C39.1319 8.984 38.6559 9.072 38.1279 9.072ZM46.8676 9.072C46.3396 9.072 45.8356 9 45.3556 8.856C44.8836 8.712 44.5116 8.536 44.2396 8.328L44.7196 7.416C44.9916 7.6 45.3276 7.756 45.7276 7.884C46.1276 8.012 46.5356 8.076 46.9516 8.076C47.4876 8.076 47.8716 8 48.1036 7.848C48.3436 7.696 48.4636 7.484 48.4636 7.212C48.4636 7.012 48.3916 6.856 48.2476 6.744C48.1036 6.632 47.9116 6.548 47.6716 6.492C47.4396 6.436 47.1796 6.388 46.8916 6.348C46.6036 6.3 46.3156 6.244 46.0276 6.18C45.7396 6.108 45.4756 6.012 45.2356 5.892C44.9956 5.764 44.8036 5.592 44.6596 5.376C44.5156 5.152 44.4436 4.856 44.4436 4.488C44.4436 4.104 44.5516 3.768 44.7676 3.48C44.9836 3.192 45.2876 2.972 45.6796 2.82C46.0796 2.66 46.5516 2.58 47.0956 2.58C47.5116 2.58 47.9316 2.632 48.3556 2.736C48.7876 2.832 49.1396 2.972 49.4116 3.156L48.9196 4.068C48.6316 3.876 48.3316 3.744 48.0196 3.672C47.7076 3.6 47.3956 3.564 47.0836 3.564C46.5796 3.564 46.2036 3.648 45.9556 3.816C45.7076 3.976 45.5836 4.184 45.5836 4.44C45.5836 4.656 45.6556 4.824 45.7996 4.944C45.9516 5.056 46.1436 5.144 46.3756 5.208C46.6156 5.272 46.8796 5.328 47.1676 5.376C47.4556 5.416 47.7436 5.472 48.0316 5.544C48.3196 5.608 48.5796 5.7 48.8116 5.82C49.0516 5.94 49.2436 6.108 49.3876 6.324C49.5396 6.54 49.6156 6.828 49.6156 7.188C49.6156 7.572 49.5036 7.904 49.2796 8.184C49.0556 8.464 48.7396 8.684 48.3316 8.844C47.9236 8.996 47.4356 9.072 46.8676 9.072ZM53.6233 9V0.599999H54.6073L58.3753 6.948H57.8473L61.5673 0.599999H62.5513L62.5633 9H61.4113L61.3993 2.412H61.6753L58.3633 7.98H57.8113L54.4753 2.412H54.7753V9H53.6233ZM70.0402 9.072C69.4002 9.072 68.8322 8.932 68.3362 8.652C67.8402 8.372 67.4482 7.988 67.1602 7.5C66.8722 7.004 66.7282 6.444 66.7282 5.82C66.7282 5.188 66.8722 4.628 67.1602 4.14C67.4482 3.652 67.8402 3.272 68.3362 3C68.8322 2.72 69.4002 2.58 70.0402 2.58C70.6722 2.58 71.2362 2.72 71.7322 3C72.2362 3.272 72.6282 3.652 72.9082 4.14C73.1962 4.62 73.3402 5.18 73.3402 5.82C73.3402 6.452 73.1962 7.012 72.9082 7.5C72.6282 7.988 72.2362 8.372 71.7322 8.652C71.2362 8.932 70.6722 9.072 70.0402 9.072ZM70.0402 8.064C70.4482 8.064 70.8122 7.972 71.1322 7.788C71.4602 7.604 71.7162 7.344 71.9002 7.008C72.0842 6.664 72.1762 6.268 72.1762 5.82C72.1762 5.364 72.0842 4.972 71.9002 4.644C71.7162 4.308 71.4602 4.048 71.1322 3.864C70.8122 3.68 70.4482 3.588 70.0402 3.588C69.6322 3.588 69.2682 3.68 68.9482 3.864C68.6282 4.048 68.3722 4.308 68.1802 4.644C67.9882 4.972 67.8922 5.364 67.8922 5.82C67.8922 6.268 67.9882 6.664 68.1802 7.008C68.3722 7.344 68.6282 7.604 68.9482 7.788C69.2682 7.972 69.6322 8.064 70.0402 8.064ZM78.5016 9L76.1376 2.64H77.2296L79.3296 8.4H78.8136L80.9976 2.64H81.9696L84.1056 8.4H83.6016L85.7496 2.64H86.7816L84.4056 9H83.3016L81.2976 3.744H81.6336L79.6056 9H78.5016ZM94.0994 9V7.656L94.0394 7.404V5.112C94.0394 4.624 93.8954 4.248 93.6074 3.984C93.3274 3.712 92.9034 3.576 92.3354 3.576C91.9594 3.576 91.5914 3.64 91.2314 3.768C90.8714 3.888 90.5674 4.052 90.3194 4.26L89.8394 3.396C90.1674 3.132 90.5594 2.932 91.0154 2.796C91.4794 2.652 91.9634 2.58 92.4674 2.58C93.3394 2.58 94.0114 2.792 94.4834 3.216C94.9554 3.64 95.1914 4.288 95.1914 5.16V9H94.0994ZM92.0114 9.072C91.5394 9.072 91.1234 8.992 90.7634 8.832C90.4114 8.672 90.1394 8.452 89.9474 8.172C89.7554 7.884 89.6594 7.56 89.6594 7.2C89.6594 6.856 89.7394 6.544 89.8994 6.264C90.0674 5.984 90.3354 5.76 90.7034 5.592C91.0794 5.424 91.5834 5.34 92.2154 5.34H94.2314V6.168H92.2634C91.6874 6.168 91.2994 6.264 91.0994 6.456C90.8994 6.648 90.7994 6.88 90.7994 7.152C90.7994 7.464 90.9234 7.716 91.1714 7.908C91.4194 8.092 91.7634 8.184 92.2034 8.184C92.6354 8.184 93.0114 8.088 93.3314 7.896C93.6594 7.704 93.8954 7.424 94.0394 7.056L94.2674 7.848C94.1154 8.224 93.8474 8.524 93.4634 8.748C93.0794 8.964 92.5954 9.072 92.0114 9.072ZM101.907 9.072C101.267 9.072 100.771 8.9 100.419 8.556C100.067 8.212 99.8912 7.72 99.8912 7.08V1.248H101.043V7.032C101.043 7.376 101.127 7.64 101.295 7.824C101.471 8.008 101.719 8.1 102.039 8.1C102.399 8.1 102.699 8 102.939 7.8L103.299 8.628C103.123 8.78 102.911 8.892 102.663 8.964C102.423 9.036 102.171 9.072 101.907 9.072ZM98.8112 3.588V2.64H102.867V3.588H98.8112ZM107.485 9.072C107.261 9.072 107.069 8.996 106.909 8.844C106.749 8.684 106.669 8.484 106.669 8.244C106.669 8.004 106.749 7.808 106.909 7.656C107.069 7.504 107.261 7.428 107.485 7.428C107.701 7.428 107.885 7.504 108.037 7.656C108.197 7.808 108.277 8.004 108.277 8.244C108.277 8.484 108.197 8.684 108.037 8.844C107.885 8.996 107.701 9.072 107.485 9.072ZM114.959 9.072C114.311 9.072 113.731 8.932 113.219 8.652C112.715 8.372 112.319 7.988 112.031 7.5C111.743 7.012 111.599 6.452 111.599 5.82C111.599 5.188 111.743 4.628 112.031 4.14C112.319 3.652 112.715 3.272 113.219 3C113.731 2.72 114.311 2.58 114.959 2.58C115.535 2.58 116.047 2.696 116.495 2.928C116.951 3.152 117.303 3.488 117.551 3.936L116.675 4.5C116.467 4.188 116.211 3.96 115.907 3.816C115.611 3.664 115.291 3.588 114.947 3.588C114.531 3.588 114.159 3.68 113.831 3.864C113.503 4.048 113.243 4.308 113.051 4.644C112.859 4.972 112.763 5.364 112.763 5.82C112.763 6.276 112.859 6.672 113.051 7.008C113.243 7.344 113.503 7.604 113.831 7.788C114.159 7.972 114.531 8.064 114.947 8.064C115.291 8.064 115.611 7.992 115.907 7.848C116.211 7.696 116.467 7.464 116.675 7.152L117.551 7.704C117.303 8.144 116.951 8.484 116.495 8.724C116.047 8.956 115.535 9.072 114.959 9.072ZM124.073 9.072C123.433 9.072 122.865 8.932 122.369 8.652C121.873 8.372 121.481 7.988 121.193 7.5C120.905 7.004 120.761 6.444 120.761 5.82C120.761 5.188 120.905 4.628 121.193 4.14C121.481 3.652 121.873 3.272 122.369 3C122.865 2.72 123.433 2.58 124.073 2.58C124.705 2.58 125.269 2.72 125.765 3C126.269 3.272 126.661 3.652 126.941 4.14C127.229 4.62 127.373 5.18 127.373 5.82C127.373 6.452 127.229 7.012 126.941 7.5C126.661 7.988 126.269 8.372 125.765 8.652C125.269 8.932 124.705 9.072 124.073 9.072ZM124.073 8.064C124.481 8.064 124.845 7.972 125.165 7.788C125.493 7.604 125.749 7.344 125.933 7.008C126.117 6.664 126.209 6.268 126.209 5.82C126.209 5.364 126.117 4.972 125.933 4.644C125.749 4.308 125.493 4.048 125.165 3.864C124.845 3.68 124.481 3.588 124.073 3.588C123.665 3.588 123.301 3.68 122.981 3.864C122.661 4.048 122.405 4.308 122.213 4.644C122.021 4.972 121.925 5.364 121.925 5.82C121.925 6.268 122.021 6.664 122.213 7.008C122.405 7.344 122.661 7.604 122.981 7.788C123.301 7.972 123.665 8.064 124.073 8.064ZM139.322 2.58C139.834 2.58 140.286 2.68 140.678 2.88C141.07 3.08 141.374 3.384 141.59 3.792C141.814 4.2 141.926 4.716 141.926 5.34V9H140.774V5.472C140.774 4.856 140.63 4.392 140.342 4.08C140.054 3.768 139.65 3.612 139.13 3.612C138.746 3.612 138.41 3.692 138.122 3.852C137.834 4.012 137.61 4.248 137.45 4.56C137.298 4.872 137.222 5.26 137.222 5.724V9H136.07V5.472C136.07 4.856 135.926 4.392 135.638 4.08C135.358 3.768 134.954 3.612 134.426 3.612C134.05 3.612 133.718 3.692 133.43 3.852C133.142 4.012 132.918 4.248 132.758 4.56C132.598 4.872 132.518 5.26 132.518 5.724V9H131.366V2.64H132.47V4.332L132.29 3.9C132.49 3.484 132.798 3.16 133.214 2.928C133.63 2.696 134.114 2.58 134.666 2.58C135.274 2.58 135.798 2.732 136.238 3.036C136.678 3.332 136.966 3.784 137.102 4.392L136.634 4.2C136.826 3.712 137.162 3.32 137.642 3.024C138.122 2.728 138.682 2.58 139.322 2.58Z" fill="black"/>
</svg>
